<svg width="128" height="128" xmlns="http://www.w3.org/2000/svg"><path fill="none" d="M-1-1h130v130H-1z"/><g><path d="M64.5 12l6.5.5-6.5.5v-1zM45.5 14l-1 2-2 1 1-2 2-1zM82.5 14l2.5.5-2.5.5v-1zM95.5 14l2.5.5-2.5.5v-1zM40.5 17l-1 2 1-2zM37.5 19l-1 2 1-2zM109.5 19l.5 1.5-2 1 1.5-2.5zM33.5 22l-8 9 8-9zM64.5 22l3.5.5-3.5.5v-1zM72.5 23l2.5.5-2.5.5v-1zM50.5 25l-1 2 1-2zM81.5 25l2.5.5-2.5.5v-1zM95.5 25l2.5.5-2.5.5v-1zM24.5 32l-1 2 1-2zM44.5 32l.5 2.5h-1l.5-2.5zM45.5 36l3.5 2.5-1.5-.5-2-2zM21.5 38l.5 3.5h-1l.5-3.5zM23.5 45l5 6-5-6zM72.5 45l2.5.5-2.5.5v-1zM103.5 54l1 2-1-2zM106.5 56l8 9-8-9zM74.5 63l2.5.5-2.5.5v-1zM95.5 69l4 5-4-5zM117.5 69l1 2-1-2zM17.5 70l2.5.5-3.5 1.5 1-2zM21.5 71l3 4-3-4zM14.5 72l-1 2 1-2zM25.5 76l1 2-1-2zM6.5 77l-3 4 3-4zM122.5 80l.5 8.5h-1l.5-8.5zM101.5 81l.5 2.5h-1l.5-2.5zM32.5 83l2 3-2-3zM1.5 84l.5 6.5H1l.5-6.5zM57.5 93l2.5.5-2.5.5v-1zM70.5 93l2.5.5-2.5.5v-1zM118.5 98l-4 5 4-5zM6.5 100l5 6-5-6zM112.5 103l-1 2 1-2zM102.5 108l1.5.5-3.5 1.5v-1l2-1zM72.5 116l3.5.5-3.5.5v-1zM47.5 117l6.5.5-6.5.5v-1zM58.5 117l6.5.5-6.5.5v-1z" stroke="#EFEFEF" fill="#EFEFEF"/><path d="M52.014 8.5h20l15 3h9l12-1q3 .5 2.5 4.5-8.4 8.1-27.5 5.5l-10-3h-16q-6.7 2.3-10.5 7.5l-1 6 5.5 4.5 12 4 13 2 27 8 12.5 10.5 7 13 1 11q-2.3 10.7-10.5 15.5l-25 10-10 2-11 1h-19l-24-6q-8.7-3.2-14.5-9.5-6.3-5.2-6-17l3.5-5.5 12-8h2l3.5 2.5q3 7.5 9.5 11.5 13.1 9.9 36 10l22-4 8-3 3.5-3.5 1-4q-1.2-7.8-6.5-11.5l-13-5-40-7q-12.2-3.3-19.5-11.5l-2-7q2.9-9.6 10.5-14.5l18-11z" stroke="#020202" fill="#020202"/></g></svg>